<svg width="345" height="461" viewBox="0 0 345 461" fill="none" xmlns="http://www.w3.org/2000/svg">
<g clip-path="url(#clip0_90_58)">
<path d="M82.8608 116.261C104.39 105.394 133.827 114.859 144.988 136.237C156.15 157.616 147.089 187.18 125.865 198.633C104.642 210.086 74.9569 201.431 63.2139 180.367C51.4708 159.302 59.0587 128.276 82.8608 116.261Z" fill="#2DD4BF"/>
<path d="M261.258 225.55C269.536 237.295 279.083 248.016 288.826 258.549C303.764 275.408 320.184 290.852 336.052 306.819C338.769 309.423 341.51 312.002 344.274 314.558C342.153 311.554 340.028 308.554 337.9 305.556C329.237 292.478 314.263 273.122 310.093 267.981C302.152 257.114 281.568 231.871 277.009 225.864C256.708 199.487 251.211 192.028 230.527 166.401C220.57 154.725 211.364 142.372 200.647 131.37C202.743 129.209 204.456 126.707 205.713 123.972C210.801 113.168 209.645 100.674 206.57 89.4607C204.947 83.8523 202.69 77.9034 197.67 74.4908C196.083 73.6563 194.355 73.1236 192.574 72.9198C192.21 68.5776 191.87 64.2333 191.587 59.8847C190.741 47.4745 190.206 35.0357 188.808 22.6708C187.946 14.4401 187.457 3.16207 177.785 0.684062C172.388 -0.731498 166.824 0.371231 161.41 1.11915C151.263 2.7484 149.521 3.06714 139.697 3.98014C111.107 5.94967 82.3206 6.8483 54.0957 12.1798C43.464 14.0508 31.4113 14.6848 23.6794 23.1906C22.5341 24.2593 21.4498 25.3922 20.3934 26.5478C22.239 25.1635 24.155 23.8757 26.1338 22.6897C34.9452 17.03 44.8743 18.8944 55.1752 18.2871C75.7148 17.2232 96.2842 18.0828 116.832 17.2843C127.402 17.1602 137.958 16.4858 148.458 15.2637C157.773 14.3007 165.087 12.4444 170.657 12.2098C171.649 12.1408 172.646 12.1489 173.637 12.2339C173.978 12.3053 174.32 12.3804 174.658 12.4707C174.69 12.5052 174.726 12.5353 174.758 12.5704C174.823 12.6798 174.899 12.8076 175.005 12.9879C175.044 13.0953 175.068 13.1545 175.099 13.2383C175.296 13.7828 175.45 14.342 175.559 14.9106C177.65 26.7626 178.735 51.261 179.995 68.7436C182.114 91.9293 184.32 115.121 187.235 138.222C190.73 163.438 190.615 188.953 192.599 214.3C193.477 226.292 195.119 238.225 195.59 250.245C195.99 267.49 195.451 283.218 192.843 296.389C190.139 308.495 187.723 317.116 183.487 319.631C183.381 319.675 183.268 319.723 183.101 319.799C180.376 320.605 181.119 320.298 175.868 320.068C164.322 319.318 152.785 318.431 141.278 317.216C128.526 316.099 117.849 313.569 102.174 311.844C89.1677 310.532 76.13 309.532 63.121 308.23C55.9093 307.607 49.9847 306.935 46.8233 305.434C42.2446 302.631 42.9416 303.167 42.0627 292.311C41.4688 277.257 40.6115 262.22 39.5845 247.19C38.6394 231.845 37.8248 216.483 36.2356 201.188C34.5128 185.267 32.2009 169.413 30.6258 153.475C28.574 128.281 26.8307 103.056 24.3972 77.892C22.4976 59.3024 19.8472 40.7945 18.1556 22.1833C16.2858 40.8166 16.0491 59.5583 15.8303 78.2692C15.7217 83.5715 15.6645 88.874 15.6588 94.1764C11.3227 96.6574 7.20799 99.5627 4.64719 103.968C-2.41975 114.553 -1.60781 128.632 8.32913 137.106C11.0637 139.393 14.1645 141.202 17.501 142.458C17.8813 147.574 18.381 152.679 18.9199 157.78C13.4161 161.525 8.11147 165.8 5.7237 172.225C2.90114 179.209 2.56119 186.95 4.76068 194.154C6.52555 199.523 10.8847 203.585 15.5263 206.58C18.4521 208.358 21.615 209.713 24.9207 210.604C25.3799 215.604 25.7892 220.608 26.0579 225.626C26.7935 238.018 27.6438 250.404 28.3913 262.796C25.5625 261.298 22.9529 259.418 20.6356 257.21C12.5882 249.729 9.11984 237.414 13.1225 225.208C15.0534 219.77 19.6875 216.055 23.6597 212.119C18.5485 214.76 13.1408 217.503 9.92841 222.487C1.56954 235.327 6.29968 254.104 20.1176 260.988C20.438 261.163 20.7711 261.312 21.0978 261.474C16.4406 265.57 11.6546 269.944 9.63223 275.984C5.45316 286.418 12.3482 296.725 22.0168 300.798C24.6885 301.984 27.5689 302.63 30.4915 302.697C30.5958 302.692 30.7004 302.692 30.8048 302.697C32.0011 308.339 35.1078 313.328 40.6699 315.962C48.4836 319.846 57.4974 319.672 65.9903 320.691C77.1235 321.785 88.2709 322.72 99.4109 323.735C109.534 324.911 119.917 326.617 133.492 328.494C148.921 330.4 164.435 331.588 179.952 332.487C182.336 332.608 184.72 332.234 186.952 331.389C189.185 330.543 191.218 329.244 192.924 327.574C201.119 337.268 207.548 346.067 215.473 356.276C226.623 370.39 238.498 383.904 250.284 397.486C268.984 419.13 287.947 440.758 310.74 458.241C311.837 459.109 312.941 459.968 314.053 460.816C312.307 458.58 310.553 456.35 308.792 454.126C293.412 435.196 278.795 413.503 261.089 392.388C250.125 379.687 237.66 368.408 225.49 356.893C214.799 346.94 204.499 336.549 193.105 327.386C197.233 323.359 199.886 317.474 201.606 311.637C207.066 293.602 207.974 274.604 207.941 255.871C207.819 242.893 206.065 230.018 205.02 217.099C203.772 201.708 203.199 186.271 202.374 170.854C201.895 158.245 200.37 145.731 198.814 133.221C199.439 132.626 200.046 132.013 200.635 131.383C221.118 162.579 238.372 195.949 261.258 225.55ZM15.9613 141.244C12.7073 138.822 9.96975 135.775 7.9094 132.281C3.01107 123.76 4.20997 113.531 8.92932 104.19C10.6825 101.042 12.9597 98.2159 15.6629 95.8334C15.6822 109.496 16.0889 123.153 17.1215 136.786C17.2324 138.667 17.3579 140.546 17.4981 142.424C16.9823 142.036 16.467 141.646 15.9613 141.244ZM16.6564 202.839C9.86962 196.474 8.68522 190.341 9.0603 180.768C9.21736 175.871 10.6024 171.091 13.0883 166.869C14.8528 164.134 16.8534 161.558 19.0672 159.172C20.8436 175.667 23.157 192.11 24.7373 208.624C21.7985 207.063 19.0809 205.118 16.6564 202.839V202.839ZM30.6492 302.541C27.5783 301.392 24.7209 299.738 22.1951 297.648C9.2218 286.584 12.0985 275.675 21.1837 261.517C23.4989 262.654 25.9456 263.5 28.4684 264.037C28.7445 268.66 29.0015 273.284 29.2394 277.909C29.5326 284.501 29.7138 291.102 30.2269 297.682C30.2627 299.332 30.4488 300.974 30.7828 302.59C30.7411 302.575 30.7043 302.561 30.6492 302.541V302.541ZM198.511 130.784C198.267 128.821 198.025 126.857 197.785 124.894C196.045 107.822 194.084 90.7626 192.635 73.6623C194.126 74.232 195.5 75.0697 196.69 76.1342C198.961 78.9291 200.465 82.2669 201.056 85.8194C202.717 93.7657 203.231 100.086 203.759 109.01C204.024 114.529 203.224 120.046 201.405 125.263C200.6 127.183 199.632 129.03 198.511 130.784V130.784Z" fill="#F0FDFA"/>
<path d="M100.932 38.9306C87.0902 37.1511 73.0424 37.8342 59.4382 40.9483C70.5477 41.6362 81.6948 41.4176 92.7688 40.2946C95.8356 39.9696 98.8936 39.5466 101.935 39.0444C101.601 39.0077 101.267 38.9678 100.932 38.9306Z" fill="#F0FDFA"/>
<path d="M129.994 32.5998C121.958 32.799 121.979 44.5719 129.994 44.7928C138.03 44.5937 138.009 32.8208 129.994 32.5998Z" fill="#F0FDFA"/>
<path d="M136.291 136.727C134.452 129.663 130.414 123.368 124.761 118.751C125.886 115.227 127.035 111.71 128.27 108.224C126.219 111.092 124.324 114.069 122.594 117.142C119.503 115.041 116.003 113.617 112.324 112.964C108.558 112.507 104.499 111.982 100.874 113.372C95.2531 116.068 91.1778 121.309 87.8501 126.463C85.9965 127.841 84.3677 129.499 83.0218 131.376C76.4218 141.366 78.6909 154.281 82.0618 165.037C87.3568 183.829 111.076 204.162 127.841 185.254C132.529 179.677 135.041 172.656 136.597 165.625C139.189 154.297 138.539 146.097 136.291 136.727ZM127.603 163.754C125.262 172.108 123.631 176.371 118.509 181.199C114.997 184.088 109.307 185.587 100.939 179.286C98.1649 177.323 95.6515 175.016 93.4596 172.419C91.3003 169.356 89.4359 166.096 87.8915 162.682C83.9371 153.212 80.5246 142.557 84.7662 132.879C86.8882 128.36 90.9851 125.283 94.4047 121.792C92.4058 123.251 90.2755 124.605 88.2877 126.114C90.3845 123.817 92.7338 121.765 95.291 119.995C97.5113 118.454 99.8552 116.797 102.589 116.4C105.706 116.291 108.813 116.811 111.725 117.929C114.637 119.047 117.294 120.739 119.538 122.906L119.532 122.919C114.712 132.399 111.093 142.442 108.759 152.818C105.526 148.454 101.978 144.333 98.1436 140.486C100.492 144.85 102.895 149.186 105.038 153.656C106.439 155.938 107.312 161.565 111.037 159.734C112.375 158.83 112.69 157.108 113.231 155.686C113.991 153.376 114.754 151.066 115.519 148.758C118.003 141.271 120.21 133.699 122.481 126.146C124.296 128.495 125.826 131.052 127.039 133.763C128.692 138.481 129.534 143.446 129.531 148.445C129.561 155.542 129.273 156.682 127.603 163.754V163.754Z" fill="#F0FDFA"/>
</g>
<defs>
<clipPath id="clip0_90_58">
<rect width="344.274" height="460.816" fill="white"/>
</clipPath>
</defs>
</svg>
