<svg width="410" height="319" viewBox="0 0 410 319" fill="none" xmlns="http://www.w3.org/2000/svg">
<g clip-path="url(#clip0_90_44)">
<path d="M319.262 121.322C338.43 110.494 359.023 102.409 380.438 97.3035C370.734 75.3208 365.351 51.6761 364.582 27.659C350.406 28.9857 336.162 29.4403 321.931 29.0201C306.489 28.5646 300.598 25.5605 301.506 43.0005C301.854 49.6912 316.226 123.038 319.262 121.322Z" fill="#2DD4BF"/>
<path d="M348.164 267.408C367.333 256.58 387.926 248.495 409.341 243.389C399.637 221.406 394.253 197.762 393.484 173.745C379.309 175.071 365.065 175.526 350.834 175.106C335.391 174.65 329.5 171.646 330.409 189.086C330.757 195.777 345.128 269.123 348.164 267.408Z" fill="#2DD4BF"/>
<path d="M84.887 133.621C88.3914 147.62 96.7588 160.029 106.87 170.326C113.162 176.735 120.334 182.532 128.747 185.675C137.16 188.817 146.985 189.024 154.834 184.661C165.199 178.9 170.042 166.837 173.93 155.634C175.541 150.992 177.14 146.204 176.918 141.295C176.603 134.331 172.694 128.094 168.693 122.386C160.886 111.249 151.582 100.212 138.777 95.6278C127.21 91.487 104.477 91.1614 93.2805 97.39C80.9719 104.237 81.7778 121.199 84.887 133.621Z" fill="#2DD4BF"/>
<path d="M12.4154 211.225L12.4089 211.182L12.4098 211.197L12.4154 211.225Z" fill="black"/>
<path d="M397.049 193.317C388.407 177.35 343.973 179.098 327.584 180.125C313.087 180.945 298.659 182.865 284.142 183.303C279.482 183.349 274.821 183.309 270.16 183.248C270.727 173.079 271.428 162.917 271.754 152.737C272.272 142.436 271.84 132.095 272.282 121.799C290.341 120.743 308.466 121.23 326.522 120C339.529 119.945 343.973 108.93 346.712 98.0219C349.355 87.4438 351.421 76.7302 352.903 65.9282C354.752 51.8132 355.708 45.3841 357.307 32.1843C357.9 25.5991 359.245 18.9039 358.16 12.3116C356.125 1.48633 346.006 -0.968695 336.377 0.307015C329.507 0.889405 322.654 1.65841 315.786 2.25449C287.625 5.09099 259.93 11.2004 231.978 15.5593C232.069 12.1719 232.229 8.87699 232.476 5.71305C231.8 9.04894 231.22 12.3968 230.703 15.7525C228.366 16.1122 226.031 16.4846 223.689 16.8156C222.545 17.0016 221.4 17.1836 220.255 17.3616C222.145 17.343 224.036 17.3267 225.927 17.2972C227.444 17.2735 228.961 17.2329 230.478 17.2045C228.393 32.4853 227.299 47.8851 227.203 63.3072C216.874 64.0496 207.132 65.3169 200.96 65.8792C178.968 68.0216 156.853 70.5481 134.736 69.0762C118.501 68.6533 103.161 62.5275 84.3951 58.7581C63.2571 55.0598 41.6354 55.0844 20.5059 58.831C18.3417 59.2335 16.1818 59.6585 14.0263 60.1061C18.8561 59.9171 23.6905 59.7139 28.5242 59.861C52.8206 60.585 74.5326 63.5817 98.2159 71.787C119.87 80.4455 143.407 81.7517 166.445 80.0012C186.717 78.7605 206.841 75.8166 227.082 74.2796C227.043 81.3049 227.056 88.3257 227.031 95.3257C227.266 102.408 226.461 109.628 227.729 116.624C231.404 128.056 249.153 123.052 258.235 122.969C259.239 122.852 260.246 122.78 261.251 122.678C261.242 123.47 261.208 124.261 261.225 125.055C261.899 144.43 260.846 163.772 259.721 183.106C250.511 182.993 241.302 182.977 232.097 183.554C231.634 183.574 231.171 183.593 230.708 183.613C231.141 180.243 231.612 176.882 232.155 173.542C231.138 176.904 230.191 180.28 229.314 183.673C228.734 183.697 228.154 183.724 227.574 183.747C228.129 183.816 228.683 183.887 229.238 183.958C226.025 196.577 223.525 209.366 221.748 222.265C218.103 221.327 214.436 220.35 210.847 219.416C199.963 216.853 188.893 215.154 177.741 214.337C160.28 212.584 142.851 215.022 125.431 216.079C114.916 216.748 104.372 216.609 93.8499 217.122C77.771 217.771 61.7023 218.893 45.6035 218.856C33.8081 218.905 19.3984 217.903 14.622 215.547C14.4958 215.479 14.3732 215.405 14.255 215.324L14.2322 215.305C13.9592 214.937 13.8674 214.851 13.8802 214.906C13.5009 214.377 13.1607 213.82 12.862 213.241C12.8316 213.15 12.7909 213.062 12.7643 212.969C12.6121 212.396 12.4955 211.813 12.4153 211.225C12.5347 211.949 12.4757 212.34 12.4096 211.197C12.389 211.061 12.3457 210.93 12.3289 210.793C12.3615 210.927 12.3874 211.058 12.4088 211.182C12.403 211.082 12.3974 211.001 12.3918 210.878C12.1081 201.279 12.5865 191.663 11.9928 182.07C11.054 166.02 9.29378 150.027 7.91625 134.01C6.42731 120.895 5.00664 107.737 5.80322 94.5195C6.20199 83.7253 8.42966 73.7384 10.995 62.7424C4.52902 78.2241 0.827279 94.7195 0.0578251 111.48C-0.320775 135.293 1.24594 159.107 2.24844 182.893C2.53844 190.008 2.5243 197.129 2.4949 204.249C2.5579 208.906 2.16671 213.862 4.38207 218.121C7.94744 225.852 17.1283 226.657 24.6072 227.533C33.5387 228.463 42.5188 228.843 51.4969 228.673C66.1393 228.555 80.7592 227.652 95.3914 227.178C105.896 226.762 116.419 226.97 126.914 226.292C144.756 225.194 162.62 223.006 180.485 225.005C189.009 225.989 196.295 226.643 207.236 229.313C211.611 230.437 215.987 231.622 220.377 232.748C219.252 242.083 218.367 251.452 217.602 260.819C216.814 270.326 216.217 279.848 215.368 289.35C215.041 295.589 213.803 301.9 214.579 308.132C216.051 318.274 227.543 318.496 235.647 318.376C246.959 318.452 258.24 317.543 269.538 317.123C287.978 316.388 306.424 315.516 324.838 314.32C336.371 313.205 345.638 311.389 353.829 310.672C358.11 310.34 362.404 310.206 366.696 310.131C371.212 310.355 376.145 309.602 379.06 305.78C383.936 299.693 385.324 291.689 387.151 284.299C389.64 273.47 391.469 262.501 393.182 251.526C395.502 236.103 396.5 227.975 397.988 217.037C398.949 209.222 400.152 200.795 397.049 193.317ZM231.943 17.1746C246.903 16.8773 261.86 16.325 276.765 14.9584C293.549 13.4833 310.355 12.461 327.187 11.7716C332.695 11.5379 338.231 10.7662 343.738 11.2626C344.188 11.3726 344.646 11.5169 344.986 11.6311C345.402 11.8328 345.806 12.0579 346.197 12.3053C346.359 12.4753 346.487 12.6106 346.567 12.6963C347.819 15.3438 347.085 22.7265 346.12 30.5959C342.935 56.0901 338.099 101.667 330.567 108.407C320.165 111.017 298.73 109.676 283.327 110.53C280.407 110.599 276.898 110.812 273.136 111.091C273.145 111.019 273.149 110.947 273.159 110.875C273.845 104.648 275.867 94.7149 275.387 84.5085C274.593 78.9518 273.05 72.7932 268.966 68.7359C262.532 63.1298 248.182 62.2747 233.76 62.9188C232.585 47.7083 231.65 31.639 231.943 17.1746ZM237.416 113.145C237.39 113.097 237.373 113.067 237.343 113.013C237.295 103.784 235.978 89.6954 234.65 73.8895C244.131 73.7473 253.222 73.9367 259.155 75.691C259.176 75.6984 259.196 75.7078 259.217 75.7153C259.709 75.9699 260.71 76.4855 261.456 76.9584L261.47 76.9697C261.528 77.0347 261.558 77.0667 261.599 77.111C263.172 79.7792 264.09 85.1271 264.151 85.7486C264.307 94.5493 262.834 103.263 261.915 112.014C250.885 112.964 240.336 113.882 237.416 113.145V113.145ZM230.64 184.137L230.757 184.152C241.003 185.212 250.162 186.654 259.433 187.999C258.502 202.645 259.72 213.671 255.23 225.609C255.106 225.884 254.953 226.2 254.785 226.489C254.721 226.552 254.642 226.628 254.548 226.718C254.48 226.763 254.425 226.801 254.343 226.854C254.273 226.902 254.224 226.933 254.163 226.973C247.517 227.975 237.863 226.208 227.583 223.724C228.1 210.412 228.989 197.172 230.64 184.137ZM387.391 213.292C385.588 227.532 384.522 236.693 382.733 248.478C380.647 263.926 375.257 292.718 371.548 297.87C371.227 298.292 370.868 298.684 370.477 299.042L370.437 299.067C369.114 299.291 366.432 299.1 363.022 299.229C345.349 299.533 334.023 303.078 318.461 303.726C300.107 304.539 281.779 305.846 263.419 306.549C252.548 307.332 232.978 308.143 227.352 307.312C226.649 307.175 225.958 306.983 225.286 306.737L225.252 306.717C224.937 305.851 225.104 304.215 225.374 299.573C225.952 290.593 226.437 281.604 226.58 272.605C226.798 259.928 226.902 247.162 227.237 234.425C234.998 236.354 242.936 237.483 250.927 237.796C258.483 238.34 263.995 234.077 265.865 226.757C268.856 217.938 268.931 208.488 269.453 199.278C269.538 195.993 269.685 192.712 269.842 189.43C275.776 190.184 281.925 190.83 288.581 191.254C323.203 192.06 368.838 186.555 385.875 197.173C386.308 197.569 386.717 197.992 387.097 198.439L387.132 198.497C388.289 201.881 387.954 206.89 387.391 213.292Z" fill="#F0FDFA"/>
<path d="M196.671 105.874C189.23 99.6297 180.095 95.7462 170.436 94.7207C160.119 92.9641 149.544 93.4755 139.445 96.2192C135.415 97.2493 131.405 98.3715 127.479 99.7526C128.473 99.5498 129.467 99.354 130.466 99.1803C140.758 97.2576 152.706 96.3224 161.911 98.0289C173.942 100.344 184.356 103.725 191.978 112.114C202.873 122.787 201.81 136.675 196.961 146.664C192.4 155.312 188.723 157.098 179.348 163.436C164.368 172.896 152.226 175.688 135.356 176.363C116.43 176.72 96.2225 170.354 92.9561 157.087C90.6222 145.737 92.7713 130.115 104.458 118.727C113.969 107.619 128.575 105.38 141.951 108.031C131.411 104.584 119.419 103.616 109.204 108.605C99.8869 113.456 92.3776 121.175 87.7868 130.623C83.1959 140.071 81.7672 150.746 83.7119 161.068C88.7153 178.998 109.132 186.129 125.945 187.664C146.416 189.119 167.752 184.898 184.985 173.427C192.035 168.718 199.354 163.91 203.999 156.625C214.801 139.588 213.057 118.629 196.671 105.874Z" fill="#F0FDFA"/>
<path d="M170.231 139.521C163.832 137.056 157.238 135.127 150.519 133.756C152.828 125.476 154.522 117.022 156.138 108.577C152.53 116.503 149.58 124.712 147.317 133.121C137.607 131.397 127.794 130.307 117.942 129.858C127.214 132.939 136.718 135.27 146.363 136.829C145.069 142.196 144.106 147.638 143.481 153.123C142.784 156.955 146.03 147.165 146.603 145.828C147.668 143.028 148.614 140.193 149.483 137.336C156.353 138.371 163.278 139.085 170.231 139.521Z" fill="#F0FDFA"/>
<path d="M280.661 216.713C302.969 221.1 331.837 223.773 351.431 225.046C328.958 216.123 304.52 215.235 280.661 216.713Z" fill="#F0FDFA"/>
<path d="M274.84 247.272C288.461 246.279 302.081 247.077 315.702 247.584C326.856 247.969 338.005 247.517 349.143 246.944C324.654 242.364 299.098 240.436 274.84 247.272Z" fill="#F0FDFA"/>
<path d="M272.415 272.981C300.826 275.63 329.559 277.143 357.843 272.407C329.424 269.609 300.76 269.095 272.415 272.981Z" fill="#F0FDFA"/>
<path d="M325.837 37.5528C315.718 35.2738 305.516 33.2045 295.16 32.3941C287.523 31.8634 279.86 31.9445 272.217 31.5688C269.139 31.1824 265.609 31.5204 262.795 30.3204C262.792 30.4726 262.786 30.4852 262.948 30.6031C267.408 32.6422 272.271 33.6678 277.046 34.7002C293.622 37.9293 310.574 38.5825 327.423 38.2471C327.907 38.2408 328.391 38.2333 328.874 38.228C327.861 38.0063 326.849 37.778 325.837 37.5528Z" fill="#F0FDFA"/>
<path d="M328.301 55.8076C310.265 50.8977 291.576 48.822 272.902 49.6549C286.599 52.2159 300.402 54.8167 314.328 55.7207C319.421 55.9953 324.522 56.0782 329.622 56.1463C329.182 56.0339 328.742 55.9195 328.301 55.8076Z" fill="#F0FDFA"/>
<path d="M328.91 84.6662C311.107 82.6313 293.095 83.4208 275.539 87.0055C290.798 87.6985 306.124 87.8484 321.308 85.9571C324.32 85.6177 327.315 85.2354 330.318 84.8224C329.849 84.7707 329.38 84.717 328.91 84.6662Z" fill="#F0FDFA"/>
</g>
<defs>
<clipPath id="clip0_90_44">
<rect width="409.341" height="318.394" fill="white"/>
</clipPath>
</defs>
</svg>
