<svg width="628" height="167" viewBox="0 0 628 167" fill="none" xmlns="http://www.w3.org/2000/svg">
<path d="M65.7918 34.6309C45.2878 41.4729 29.5498 60.8367 27.0434 82.3063C24.537 103.776 35.3916 126.244 53.7683 137.625C58.4817 105.683 63.1952 73.7411 65.7918 34.6309Z" fill="#0F766E"/>
<path d="M541.827 26.1613C522.729 28.5878 505.734 43.1654 500.428 61.6711C495.122 80.1769 501.811 101.545 516.721 113.723C540.956 92.336 548.34 54.09 541.827 26.1613Z" fill="#0F766E"/>
<path d="M362.044 102.291C354.54 112.633 346.613 123.345 335.237 129.161C323.86 134.976 307.982 134.137 300.437 123.826C292.893 113.514 301.099 94.943 313.731 96.8575C330.848 99.4514 347.965 102.045 362.044 102.291Z" fill="#0F766E"/>
<path d="M140.664 72.0719C123.667 54.0259 86.4811 52.9734 63.2617 65.9244C62.7921 66.2678 61.4981 66.8932 62.729 66.4042C65.9399 65.2565 69.2412 64.3795 72.5984 63.7825C81.039 61.9164 96.1952 62.8544 100.631 63.8368C109.372 65.3861 114.962 67.1766 120.934 70.2735C127.563 73.7397 128.524 74.7131 133.731 80.7521C136.676 84.8812 139.28 88.5094 138.753 97.5415C138.092 105.96 136.5 115.652 130.207 124.414C130.079 125.056 121.854 133.928 116.599 138.185C114.072 140.113 111.381 141.813 108.705 143.523C106.819 144.639 104.874 145.65 102.877 146.552C87.051 153.265 70.7787 154.39 59.4008 152.471C55.4552 151.841 51.6073 150.705 47.952 149.091C43.035 146.956 38.3817 144.258 34.0847 141.053C32.6402 139.837 31.2724 138.533 29.9892 137.149C29.2647 136.477 26.6905 133.442 25.9443 132.606C15.395 117.847 11.6731 108.082 11.1669 91.5399C10.9872 71.8878 24.1903 50.1572 42.4656 38.2161C52.9144 31.2121 62.828 28.8601 76.3237 26.701C63.5878 26.754 50.5752 27.7075 39.0447 33.6082C23.3865 41.4872 11.0462 54.6851 4.23543 70.8366C-1.00486 83.7652 -1.11284 98.2718 2.43164 111.655C8.41671 132.105 21.1564 151.905 41.5177 160.211C57.2602 167.779 75.4895 167.366 92.2161 163.63C112.398 159.186 130.07 146.349 141.761 129.452C146.776 121.421 149.406 112.136 150.406 102.77C152.11 91.2862 149.284 80.1571 140.664 72.0719Z" fill="black"/>
<path d="M396.116 65.9622C394.589 57.2673 388.602 50.029 381.325 45.3206C363.516 34.0386 338.302 34.5186 320.664 45.9328C317.131 48.4454 313.509 51.0365 310.791 54.4519C308.574 57.6165 306.854 61.1004 305.688 64.7838C305.39 65.5761 304.331 69.9022 305.021 67.9622C306.43 64.6565 308.259 61.5463 310.463 58.7085C313.032 55.2101 316.875 53.0628 320.629 51.0528C330.294 46.0889 339.165 44.8671 349.531 45.5338C362.907 46.6687 378.274 52.8037 383.24 63.6227C383.845 65.0926 383.694 64.1615 384.73 68.1602C384.817 68.9254 384.902 69.6912 384.942 70.4608C385.083 73.0317 385.021 75.6099 384.756 78.1711C381.531 96.1804 373.318 106.187 358.625 119.873C346.641 130.63 326.254 137.827 313.628 135.909C302.707 134.179 299.979 132.571 290.607 127.248C277.469 120.25 264.876 107.052 261.285 97.5872C257.97 89.026 258.35 86.8262 257.683 77.8888C257.751 68.1443 257.871 63.9584 260.289 55.4779C262.926 47.1401 269.366 36.9815 278.369 29.5367C286.058 23.7893 294.687 19.4209 303.87 16.6262C293.507 18.6858 283.145 21.7049 274.194 27.4752C264.896 33.8585 257.531 42.6734 252.903 52.9576C247.348 66.6934 245.871 85.2877 250.291 99.4973C255.371 114.6 267.089 126.187 280.1 134.849C288.658 140.235 297.583 145.562 307.684 147.328C335.533 153 363.162 136.608 380.028 115.314C391.434 101.806 398.923 83.8291 396.116 65.9622Z" fill="black"/>
<path d="M621.157 71.8515C612.469 52.3907 590.878 40.2824 569.82 41.3007C560.298 41.4723 551.513 45.5511 543.304 50.0388C542.087 50.6963 540.885 51.3803 539.686 52.0696C542.629 50.9571 545.601 49.9205 548.613 49.0133C560.413 44.7807 573.398 45.3103 584.814 50.4899C593.262 54.3283 596.257 56.5194 601.993 62.7191C606.406 67.3809 607.958 69.6838 611.067 76.7844C612.819 80.7412 614.174 84.8619 615.113 89.086C617.15 101.76 609.5 121.237 595.595 133.871C578.399 151.23 551.53 152.542 531.322 144.517C508.831 134.419 491.895 115.306 488.387 92.1797C486.738 79.8951 491.081 51.3825 498.998 37.7569C502.093 32.2582 504.241 30.3491 510.036 25.0043C516.117 19.5262 522.96 14.958 530.35 11.442C541.531 6.22431 556.163 2.75365 570.14 0.955404C549.453 0.623104 527.814 3.41839 510.072 14.7797C500.675 20.739 491.692 28.0409 487.149 38.4885C481.149 50.8457 478.691 64.4847 477.297 78.0503C474.004 102.161 485.662 125.546 503.759 141.028C511.459 147.527 519.904 153.262 529.438 156.698C551.554 164.666 578.239 163.462 597.235 148.626C615.167 135.26 627.844 113.644 627.045 90.9073C626.656 84.1613 623.967 77.9012 621.157 71.8515Z" fill="black"/>
</svg>
