<svg width="502" height="304" viewBox="0 0 502 304" fill="none" xmlns="http://www.w3.org/2000/svg">
<g clip-path="url(#clip0_89_35)">
<path d="M39.0066 235.598C46.7277 212.511 75.6712 199.207 98.2205 208.381C124.815 219.199 155.139 202.678 174.226 181.23C193.313 159.782 206.318 133.083 227.618 113.832C248.919 94.581 283.974 85.1015 305.703 103.869C328.312 123.397 362.945 127.612 389.579 114.077C416.212 100.542 433.224 70.0826 430.778 40.3072C391.779 79.6796 327.603 91.4538 277.167 68.4897C253.001 57.4865 224.065 71.7208 206.733 91.8371C189.401 111.953 179.396 137.345 163.619 158.702C147.841 180.06 122.414 198.125 96.4028 192.786C70.3897 187.446 42.2969 209.444 39.0066 235.598Z" fill="#2DD4BF"/>
<path d="M431.967 273.75C406.007 274.486 380.151 276.937 354.288 279.154C325.081 281.25 295.848 283.017 266.63 284.959C271.434 253.472 271.28 221.571 269.977 189.818C269.262 174.848 268.954 159.863 268.25 144.892C267.926 136.129 266.909 127.394 266.934 118.621C266.907 117.943 267.12 115.876 266.788 117.651C264.751 127.9 264.348 138.392 263.188 148.762C261.679 163.821 260.504 178.924 260.724 194.07C260.698 210.303 262.359 226.465 263.618 242.631C264.792 256.729 265.411 270.864 266.312 284.98C262.588 285.228 258.864 285.468 255.141 285.722C229.777 288.391 204.486 292.061 178.949 292.615L178.884 292.616C179.676 281.953 180.261 271.251 179.545 260.57C178.359 245.468 175.969 233.037 173.657 216.678C173.5 215.395 173.385 214.107 173.285 212.819C192.117 203.309 201.209 182.781 210.888 165.101C219.087 149.328 229.334 133.842 240.073 126.306C253.56 117.215 268.643 113.395 281.921 117.885C294.006 120.892 305.542 133.537 318.937 141.653C327.157 146.653 337.188 148.643 346.727 148.605C355.866 148.066 363.957 143.302 371.371 138.299C382.004 131.004 391.757 122.504 400.437 112.969C408.061 104.741 414.667 95.6101 422.574 87.6404C429.662 80.9427 438.708 75.2074 448.53 70.2006C448.172 83.619 447.346 97.0241 447.408 110.453C447.617 130.38 447.273 150.327 448.23 170.238C450.499 203.673 450.871 237.179 452.12 270.657C456.281 242.212 459.906 213.576 459.457 184.774C459.124 166.475 458.189 148.196 456.652 129.938C454.509 111.237 452.531 92.5189 450.583 73.7976C450.402 72.3529 450.202 70.9105 450.006 69.4673C450.999 68.9725 451.989 68.4755 452.995 67.9951C457.293 66.0516 462.43 64.455 467.384 62.7756C468.211 62.5005 469.039 62.2293 469.868 61.9619C471.327 61.4862 472.789 61.0175 474.252 60.5556C473.746 60.627 473.24 60.6988 472.734 60.7709C464.852 61.7008 457.071 63.3465 449.487 65.6879C449.239 63.9371 448.987 62.187 448.732 60.4376C448.701 62.0622 448.671 63.687 448.64 65.312C448.637 65.5363 448.629 65.7605 448.625 65.9848C444.36 67.3701 440.208 69.0816 436.206 71.1042C429.704 74.0625 423.583 77.7938 417.975 82.2174C409.264 89.6708 402.028 98.6387 393.819 106.614C379.388 120.641 357.787 139.815 343.075 138.256C339.834 137.927 336.625 137.326 333.484 136.46C331.717 135.966 329.946 135.469 328.231 134.814C323.612 132.405 319.208 129.604 315.068 126.441C304.779 118.841 294.819 109.931 281.88 107.4C272.429 104.937 262.478 106.351 253.315 109.344C241.047 113.208 230.179 120.578 222.05 130.544C202.85 152.534 192.612 189.31 173.535 201.833C154.858 213.864 141.734 211.646 118.765 205.613C107.385 202.526 95.7505 199.293 83.8633 199.613C69.4174 200.377 55.574 206.251 44.1949 215.048C37.5122 219.895 32.5109 226.545 27.9593 233.344C23.7835 239.44 19.6018 245.54 15.9025 251.941C23.6257 242.79 33.88 230.66 41.6117 224.061C56.7696 213.058 71.4767 207.696 88.8056 208.762C91.344 209 93.8668 209.382 96.362 209.905C95.4213 214.53 95.3714 219.36 94.8181 224.04C93.1464 246.549 94.3225 269.202 96.2332 291.67C84.2543 290.953 72.2913 289.928 60.3284 289.008C44.7396 287.441 26.2867 286.446 18.2381 283.09C18.0632 282.998 17.9109 282.871 17.7454 282.764C17.3912 282.413 17.0065 281.998 16.7815 281.761C16.6494 281.548 16.5295 281.327 16.4225 281.1C16.1772 280.214 15.9771 279.317 15.8228 278.411C15.2394 265.619 15.8173 252.783 15.5117 239.977C15.0663 217.25 14.6237 194.525 14.5169 171.793C14.3624 114.297 8.91551 56.974 1.50538 0C0.785615 27.8551 -0.318808 55.7127 0.0871317 83.581C0.438572 113.25 2.46334 142.876 2.36203 172.557C2.35066 194.776 2.9816 216.986 3.46866 239.198C4.06987 252.843 3.60096 266.579 5.16803 280.158C5.80503 285.741 9.07994 291.187 14.4908 293.235C21.8951 296.135 29.9585 296.677 37.777 297.718C54.6593 299.479 71.563 301.061 88.5086 302.077C106.441 303.415 124.423 303.099 142.386 302.84C160.223 302.793 178.058 302.42 195.859 301.236C218.834 300.053 241.541 295.995 264.488 294.523C325.798 290.849 387.191 287.391 448.179 279.896C465.954 277.527 482.348 275.054 501.025 274.005C478.066 271.647 454.976 273.031 431.967 273.75ZM112.813 292.426C107.576 292.28 102.343 292.028 97.1134 291.722C99.1762 279.709 100.923 267.592 101.155 255.396C101.131 240.197 98.8582 225.044 96.9813 210.028C111.2 212.951 129.908 219.54 145.595 219.959C150.367 220.101 155.138 219.612 159.782 218.505C164.052 217.195 168.19 215.492 172.145 213.417C172.53 213.235 172.886 213.021 173.263 212.831C173.133 213.573 173.009 214.317 172.903 215.063C170.103 240.99 174.216 266.975 178.004 292.622C156.278 292.902 134.539 292.608 112.813 292.426Z" fill="#F0FDFA"/>
<path d="M360.556 153.292C360.259 149.394 360.053 156.568 359.86 157.812C359.008 169.001 358.634 180.217 358.109 191.424C356.356 219.257 357.58 247.138 358.542 274.976C363.22 252.934 365.45 230.443 365.191 207.911C365.045 189.613 362.848 171.424 360.556 153.292Z" fill="#F0FDFA"/>
<path d="M90.7646 155.229C82.8381 155.425 82.8586 167.038 90.7646 167.256C98.6915 167.059 98.6708 155.447 90.7646 155.229Z" fill="#F0FDFA"/>
<path d="M154.11 137.953C146.183 138.149 146.204 149.762 154.11 149.98C162.037 149.783 162.016 138.171 154.11 137.953Z" fill="#F0FDFA"/>
<path d="M262.314 67.1808C254.387 67.3774 254.408 78.9901 262.314 79.2079C270.24 79.0115 270.22 67.3988 262.314 67.1808Z" fill="#F0FDFA"/>
<path d="M357.222 85.2215C349.295 85.418 349.316 97.0308 357.222 97.2486C365.148 97.0522 365.128 85.4395 357.222 85.2215Z" fill="#F0FDFA"/>
<path d="M443.321 34.2936C435.394 34.4901 435.415 46.1028 443.321 46.3207C451.248 46.1243 451.227 34.5116 443.321 34.2936Z" fill="#F0FDFA"/>
</g>
<defs>
<clipPath id="clip0_89_35">
<rect width="501.025" height="303.07" fill="white"/>
</clipPath>
</defs>
</svg>
