<svg width="80" height="36" viewBox="0 0 80 36" fill="none" xmlns="http://www.w3.org/2000/svg">
<g clip-path="url(#clip0_67_24)">
<path d="M29.514 18.2484C45.2039 29.4953 63.9927 30.1473 80 20.0006C63.7192 19.059 47.4384 18.1174 29.514 18.2484Z" fill="#0BBFB5"/>
<path d="M32.4068 0.176255C26.7672 1.45556 21.3774 3.61592 16.0607 5.85415C11.5103 7.8719 6.82833 9.72919 2.62866 12.4286C0.474571 13.7441 -1.13585 16.5591 1.01927 18.6403C4.22717 20.9895 8.11067 22.2359 11.6334 24.0436C20.393 28.0376 29.0941 32.1772 38.008 35.8193C30.1696 29.5934 22.2227 23.4403 13.5355 18.4289C12.5864 17.8975 11.6291 17.3804 10.6636 16.8776C10.7641 16.9087 10.9125 16.9456 11.1298 16.991C22.4062 20.0047 34.0878 21.4936 45.75 21.72C57.2317 21.6713 68.6693 20.2945 80 18.5284C62.4622 15.7569 44.6588 14.2523 26.9093 15.3796C21.9385 15.641 16.9784 16.08 12.0301 16.6149C11.6079 16.7168 10.504 16.6934 10.508 16.7964C9.87161 16.466 9.2301 16.1464 8.58342 15.8374C9.42853 15.3461 10.2803 14.8655 11.1227 14.3713C17.2348 10.9112 23.0669 6.99355 28.8144 2.96423C30.2688 1.9633 31.7319 0.975188 33.2037 -8.04971e-05C32.9387 0.0592014 32.6719 0.114837 32.4068 0.176255Z" fill="#F0FDFA"/>
</g>
<defs>
<clipPath id="clip0_67_24">
<rect width="35.8194" height="80" fill="white" transform="translate(0 35.8193) rotate(-90)"/>
</clipPath>
</defs>
</svg>
