<svg width="300" height="174" viewBox="0 0 300 174" fill="none" xmlns="http://www.w3.org/2000/svg">
<g clip-path="url(#clip0_117_56)">
<path d="M298.816 122.236C297.804 104.726 293.526 81.9329 291.8 69.5834C288.807 55.6387 285.114 41.8522 282.713 27.7823C281.625 22.6947 280.699 17.573 279.554 12.498C279.545 12.4534 279.535 12.4095 279.526 12.3649C279.522 12.3454 279.518 12.3255 279.514 12.306L279.518 12.3351C279.006 9.6824 277.776 7.22079 275.964 5.21761C274.151 3.21443 271.824 1.74627 269.235 0.972644C262.823 -0.308806 256.402 1.94715 250.025 2.58016C256.014 1.79126 242.548 3.54954 240.244 3.78383C233.351 4.53806 226.425 5.00231 219.5 5.3387C195.611 5.79912 171.899 2.07944 148.095 0.662494C101.352 -2.40504 54.8271 5.60205 9.41745 15.98C7.62524 16.4232 5.82997 16.8546 4.03164 17.274C9.42254 17.376 14.8134 17.2457 20.2049 17.3006C43.7947 17.8931 67.3886 16.8427 90.9752 17.5563C131.26 18.0598 171.293 23.1067 211.524 24.4257C238.201 23.4873 247.736 20.1795 262.339 18.9466C262.697 20.1298 263.036 21.4089 263.912 25.1532C263.086 25.6866 262.263 26.2233 261.436 26.754C245.054 37.1617 229.001 48.102 212.13 57.7183C199.37 64.9021 186.637 72.1789 173.498 78.6539C164.599 82.9128 160.672 84.7945 152.795 84.7826C148.186 84.6599 130.493 71.7477 116.138 63.1565C105.684 56.9348 94.5374 52.0015 83.3949 47.1648C74.3041 42.8682 64.9888 39.0635 55.4894 35.7671C41.3939 31.2922 26.5895 28.4139 13.3521 22.0551C25.6595 31.4145 40.1661 36.7684 53.933 43.4997C70.8593 52.394 87.3527 62.1595 103.583 72.2641C112.861 78.2673 121.472 85.2331 130.739 91.2548C137.579 95.6841 144.938 100.636 153.423 100.329C168.857 100.077 182.065 90.5437 194.513 82.4079C207.256 73.7603 219.676 64.6375 231.58 54.8617C242.74 45.527 253.489 35.6871 264.029 25.6567C264.081 25.8801 264.127 26.0765 264.183 26.3169C267.572 43.3739 271.721 60.2545 275.837 77.142C278.398 88.0325 279.779 99.1635 281.551 110.199C282.875 119.512 288.123 147.663 280.109 158.633C279.982 158.764 279.823 158.928 279.626 159.129C279.535 159.187 279.436 159.231 279.342 159.285C279.387 159.265 279.428 159.244 279.474 159.225C279.378 159.304 279.266 159.361 279.145 159.392C279.042 159.446 278.946 159.512 278.84 159.559C278.913 159.505 278.991 159.457 279.072 159.416C277.263 159.907 270.729 159.322 265.4 159.266C251.74 158.874 238.083 158.328 224.484 156.915C200.231 154.735 175.859 154.407 151.628 151.88C126.037 149.501 100.352 148.774 74.7007 147.404C58.218 145.824 41.85 148.022 25.4448 149.319C23.1779 149.428 20.9077 149.548 18.6382 149.464C18.1995 149.392 17.7928 149.348 17.4958 149.326C16.9691 149.216 16.4475 149.089 15.9315 148.935C15.5308 138.834 17.8428 110.483 15.9277 94.1573C13.6917 66.7688 8.11008 39.7225 1.42053 13.1063C3.06947 43.2152 5.14108 73.452 3.22039 103.593C2.61746 115.878 1.25661 128.105 0.436732 140.374C-2.24597 160.637 7.84852 164.79 19.2656 164.238C33.4166 163.376 37.9181 161.877 52.15 160.88C63.5661 160.153 74.9832 161.159 86.3824 161.739C114.877 162.802 143.33 164.564 171.743 167.023C186.161 168.142 200.639 168.18 215.052 169.404C231.937 171.015 248.833 172.415 265.792 172.914C271.442 172.943 277.167 174.297 282.736 172.919C300.367 167.692 300.047 137.05 298.816 122.236Z" fill="#F0FDFA"/>
<path d="M279.342 159.285C279.246 159.326 279.156 159.369 279.072 159.416C279.099 159.408 279.12 159.4 279.145 159.392C279.211 159.357 279.277 159.322 279.342 159.285Z" fill="#F0FDFA"/>
<path d="M44.5691 24.6385C82.5476 35.2184 118.478 52.1053 150.86 74.5938C175.065 60.5004 199.27 46.407 225.106 33.4031C217.296 30.7866 208.928 30.3039 200.869 32.0049C192.81 33.7059 185.352 37.5288 179.265 43.0784C167.485 54.0998 148.709 53.4686 133.599 47.8184C118.488 42.1682 105.202 32.3949 90.1408 26.6145C75.0801 20.8341 56.387 19.862 44.5691 24.6385Z" fill="#2DD4BF"/>
</g>
<defs>
<clipPath id="clip0_117_56">
<rect width="299.315" height="173.536" fill="white"/>
</clipPath>
</defs>
</svg>
