<svg width="45" height="46" viewBox="0 0 45 46" fill="none" xmlns="http://www.w3.org/2000/svg">
<g clip-path="url(#clip0_59_3)">
<path d="M12.4234 31.123C10.8156 28.5895 11.2413 22.2216 11.7079 19.3341C12.3465 15.5616 13.0778 13.5669 14.6906 10.6254C15.7599 8.42095 17.4463 6.57446 19.545 5.31012C16.8563 5.8339 14.5008 7.34837 12.7265 9.41278C10.991 11.2893 9.5324 13.4338 8.6647 15.8497C7.16023 19.8036 6.92073 24.1272 7.97927 28.2231C8.67893 30.8097 10.3274 33.0387 12.4686 34.627C13.477 35.4633 14.6107 36.1357 15.8281 36.6196C16.6174 36.942 17.4183 37.2336 18.231 37.4945C18.0362 37.3512 17.7566 37.1214 17.6117 37.0149C15.2514 35.2782 13.7449 33.6567 12.4234 31.123Z" fill="#2DD4BF"/>
<path d="M44.3788 14.2549C42.7044 8.42112 37.4546 2.88619 30.3754 3.27547C30.1021 3.27348 29.8283 3.28232 29.5551 3.28342C30.2941 3.39428 31.0279 3.53351 31.7565 3.70112C34.9103 4.41382 37.1273 5.97787 39.0361 8.36269C41.5737 11.49 42.8729 16.3326 42.4768 19.7235C42.4173 20.5379 41.9172 22.7127 41.3537 24.4136C41.216 24.9541 40.1319 27.6626 40.4155 26.9812C39.6734 28.9281 37.0158 32.8846 36.5341 33.503C31.9389 39.2764 25.1747 42.3188 18.8245 42.8727C14.1502 43.0132 11.8656 42.4212 8.96847 39.4882C6.58218 36.9094 4.87902 34.2619 4.03055 30.7003C3.75147 29.5357 3.54271 26.3197 3.78597 23.7623C3.80629 23.6026 3.82 23.4945 3.82847 23.4272C3.87506 23.0809 3.93846 22.5825 3.97728 22.2699C4.79448 17.7691 6.23111 13.1533 7.81472 10.2518C9.45706 7.47584 11.5314 5.68552 14.7627 3.77581C18.3358 2.04731 22.703 1.07491 26.746 0C22.4266 0.331429 18.0255 0.585079 13.8666 1.87897C10.4498 3.18499 7.13821 5.16156 5.00987 8.20624C3.23311 10.6978 2.2159 13.6472 1.30857 16.5444C-0.0883262 21.3738 -0.424305 26.5238 0.580169 31.4629C1.97845 36.7066 5.81254 42.3458 10.9017 44.5403C15.3496 46.8617 24.0064 45.4157 29.4937 42.5294C31.96 41.2501 34.1503 39.5187 36.205 37.6615C42.0979 31.8688 46.7214 21.8121 44.3788 14.2549Z" fill="#F0FDFA"/>
<path d="M13.3169 16.4132C16.1715 16.5916 19.0346 16.5874 21.8887 16.4006C24.6847 16.0986 27.4767 15.7638 30.2827 15.5645C24.6637 14.3492 18.8726 15.2914 13.3169 16.4132Z" fill="#F0FDFA"/>
<path d="M13.8145 24.8686C20.3325 24.8298 25.7826 23.8478 32.1577 22.2548C25.9305 21.8442 19.7247 22.95 13.8145 24.8686Z" fill="#F0FDFA"/>
<path d="M13.8145 32.8264C20.5582 33.1055 27.3513 32.3931 33.7377 30.1335C28.2592 29.8323 20.0094 31.2328 13.8145 32.8264Z" fill="#F0FDFA"/>
</g>
<defs>
<clipPath id="clip0_59_3">
<rect width="45" height="45.6933" fill="white"/>
</clipPath>
</defs>
</svg>
