<svg width="465" height="415" viewBox="0 0 465 415" fill="none" xmlns="http://www.w3.org/2000/svg">
<g clip-path="url(#clip0_95_64)">
<path d="M65.99 109.874C51.0449 124.514 52.9853 151.032 66.7296 166.804C80.474 182.576 102.798 188.657 123.688 187.537C144.579 186.418 164.56 179.045 183.115 174.672L179.475 115.827C139.234 116.231 98.9928 116.635 65.99 109.874Z" fill="#2DD4BF"/>
<path d="M460.277 229.039C457.325 214.484 455.312 199.761 452.37 185.204C448.318 164.497 447.907 138.974 444.642 114.482C441.84 95.8748 437.877 77.3805 431.171 59.7583C427.219 48.5994 422.428 37.6229 415.307 28.0915C405.903 15.9238 393.59 4.52726 378.233 0.974969C366.389 -1.37861 354.392 1.06652 342.613 2.66885C320.078 6.20806 296.451 9.06474 270.502 9.68795C247.553 10.6834 224.58 10.3716 201.618 10.6018C173.606 11.2916 145.573 11.2837 117.573 12.4122C104.968 12.9332 92.4248 15.0796 81.717 16.2312C69.337 17.4518 56.8832 17.2448 44.4722 17.8792C41.9125 18.0977 39.3556 18.3659 36.8101 18.7125C39.7331 18.7715 42.6594 18.8646 45.5745 19.0978C18.384 22.7901 7.21792 26.7798 3.4203 58.7206C2.38584 70.2069 3.00353 81.7542 3.32994 93.2605C3.67853 103.005 3.5534 112.76 4.002 122.501C5.488 147.183 7.55481 171.896 5.72776 196.623C5.31306 206.071 5.17537 215.539 4.08107 224.943C2.85496 237.019 0.905723 249.025 0.403973 261.167C0.262533 267.304 -0.615841 273.561 0.772229 279.608C4.17272 290.405 16.3008 293.198 25.9173 296.081C37.503 299.649 49.1135 303.354 61.0935 305.361C70.2714 306.677 79.5577 307.076 88.8147 306.551C110.648 305.531 132.58 305.805 154.227 302.386C167.146 300.522 184.107 299.531 195.139 300.816C192.765 318.508 194.28 336.361 195.955 354.06C196.713 358.906 196.747 363.98 197.388 368.895C194.647 376.658 192.111 384.495 189.351 392.251C188.131 395.862 186.91 399.472 185.722 403.093C184.674 405.879 184.024 409.299 186.312 411.658C189.115 414.611 193.658 414.248 197.41 414.571C203.455 414.776 209.507 414.627 215.535 414.126C223.796 413.49 235.642 411.127 239.411 410.747C238.935 410.811 238.458 410.875 237.982 410.939C246.63 409.833 255.368 409.694 264.032 408.732C275.498 407.313 287.023 406.472 298.505 405.191C303.374 404.342 312.058 405.263 311.543 398.109C310.878 385.464 299.94 377.103 291.579 368.922C288.854 366.264 285.997 363.739 283.371 360.984C284.592 355.116 285.194 349.137 285.168 343.143C285.243 330.084 284.059 317.06 282.95 304.06C282.934 303.903 282.907 303.747 282.89 303.59C286.95 302.982 291.007 302.364 295.063 301.789C311.675 298.742 335.62 299.455 356.449 298.699C384.55 296.998 431.011 303.229 451.959 282.713C458.864 276.749 464.323 268.717 464.546 259.331C465.22 249.082 461.673 239.118 460.277 229.039ZM195.444 300.858C196.895 301.034 198.25 301.247 199.465 301.508C214.096 304.234 228.715 307.48 243.681 307.394C256.688 307.393 269.578 305.584 282.433 303.659C280.808 321.285 280.308 338.676 277.011 353.924C275.041 362.909 272.339 368.716 267.028 372.707C265.383 373.954 260.88 373.922 254.149 374.084C243.796 374.287 233.464 375.085 223.203 376.474C214.736 377.492 210.585 377.59 208.719 375.663C206.629 372.218 207.456 373.638 206.322 370.415C204.904 364.377 204.143 358.194 202.714 352.15C199.111 333.979 195.777 318.56 195.444 300.858ZM283.472 362.051C290.914 373.675 304.202 386.085 304.66 397.126C296.771 397.5 288.859 397.434 280.964 397.708C273.946 397.776 266.953 398.407 259.947 398.745C252.445 399.124 244.907 399.13 237.465 400.254C220.621 403.176 206.857 406.801 192.053 406.384C192.176 406.003 192.256 405.61 192.294 405.212C194.611 394.695 196.431 384.085 198.22 373.47C198.747 375.753 199.575 377.955 200.683 380.018C205.4 388.215 216.092 387.186 224.195 386.412C233.907 385.357 243.641 384.598 253.384 383.913C260.422 383.243 268.614 383.842 273.964 378.395C278.538 373.771 281.741 367.971 283.219 361.638C283.305 361.775 283.385 361.915 283.472 362.051V362.051ZM454.888 255.073C454.886 256.18 454.864 257.288 454.789 258.392C454.765 259.119 454.701 259.845 454.599 260.565C453.077 267.713 452.362 268.342 446.893 274.128C442.292 278.344 442.713 278.532 437.692 281.303C422.742 288.883 401.105 288.598 379.432 288.754C363.838 288.794 348.255 289.368 332.664 289.576C320.543 289.669 308.391 289.857 296.381 291.668C274.808 294.495 258.273 298.542 235.21 297.197C223.055 296.795 212.455 293.467 197.996 291.399C178.665 288.632 159.261 292.125 140.07 294.409C125.186 296.062 110.183 295.736 95.249 296.628C76.0107 297.677 62.7314 297.145 45.2741 291.902C37.5976 289.755 30.0074 287.312 22.3641 285.05C14.2863 282.341 12.5103 281.814 9.83464 277.114C8.30723 270.278 11.4704 241.163 13.4259 225.632C14.76 214.193 14.7517 202.667 15.3806 191.181C16.6252 171.118 15.268 151.047 13.9746 131.022C13.0158 116.607 13.2025 102.139 11.927 87.7402C10.9277 69.3371 6.86267 46.7182 18.0003 31.7306C26.0236 24.2237 37.0929 22.3195 47.3844 19.2599C47.4861 19.2704 47.5878 19.2763 47.6895 19.2872C59.0074 20.466 70.327 21.831 81.717 22.0231C91.8318 22.1212 101.933 21.2324 112.049 21.3015C128.494 21.4433 144.934 22.1029 161.382 21.8391C180.577 21.5676 199.762 20.7459 218.961 20.7432C248.983 20.573 279.088 20.5535 308.989 17.5713C331.14 15.5397 357.053 9.56741 372.508 10.7402C390.986 13.1109 408.07 32.3317 416.659 52.8423C417.961 56.2291 425.312 75.0579 427.707 83.9173C430.783 95.5268 433.189 107.304 434.913 119.189C437.589 140.682 438.786 172.268 444.712 196.943C447.571 212.322 450.358 227.715 453.073 243.122C453.751 249.132 455.07 251.207 454.888 255.073Z" fill="#F0FDFA"/>
<path d="M34.7834 35.7752C25.7461 35.9992 25.7699 49.2392 34.7838 49.4876C43.8211 49.2637 43.7976 36.0237 34.7834 35.7752Z" fill="#F0FDFA"/>
<path d="M378.922 53.4731C361.039 48.9304 342.378 50.7352 324.115 50.5283C291.115 50.7374 258.246 53.5871 225.557 57.9961C204.577 60.4968 183.454 62.2312 162.313 61.4509C145.44 61.0175 128.554 59.8307 111.677 60.6978C83.5514 62.3338 55.3528 64.8956 27.7241 70.5551C58.3181 68.5178 89.0409 69.8806 119.663 70.6239C142.381 71.9538 165.123 73.9442 187.9 73.0467C209.348 72.1013 230.619 69.2017 251.933 66.8046C274.675 64.2753 297.504 62.6473 320.249 60.1511C340.2 58.7281 361.054 53.8288 380.629 56.2559C385.115 56.9386 389.508 58.1284 393.995 58.816C388.944 57.1097 384.092 54.8137 378.922 53.4731Z" fill="#F0FDFA"/>
<path d="M56.3531 35.4848C47.3158 35.7088 47.3393 48.9488 56.3535 49.1972C65.3909 48.9732 65.3674 35.7333 56.3531 35.4848Z" fill="#F0FDFA"/>
<path d="M78.7584 32.9953C69.7211 33.2193 69.7446 46.4593 78.7584 46.7077C87.7961 46.4837 87.7727 33.2439 78.7584 32.9953Z" fill="#F0FDFA"/>
<path d="M172.911 126.304C171.971 120.034 170.956 113.768 169.438 107.607C168.263 102.673 166.166 97.0875 160.887 95.4015C154.379 93.5219 147.582 94.6425 141.033 95.7127C130.636 97.308 125.9 98.3075 116.103 98.9291C94.5999 100.518 63.5067 100.117 46.8524 103.379C60.3364 103.349 73.8136 104.438 87.2633 105.33C100.419 106.132 113.639 107.012 126.816 106.249C134.962 105.724 143.039 104.374 151.187 103.932C155.431 104.059 153.944 103.735 157.77 104.683C160.431 107.349 164.021 132.037 164.976 142.603C165.693 150.671 163.923 157.122 162.884 158.583C162.102 158.771 161.132 158.924 160.691 158.988C160.85 158.967 161.093 158.935 161.445 158.891C160.845 158.959 160.248 159.042 159.65 159.128C159.922 159.086 160.126 159.057 160.291 159.034C160.107 159.055 159.868 159.081 159.544 159.112C150.338 159.95 141.081 160.074 131.856 159.481C127.932 159.261 124.036 158.698 120.114 158.464C115.292 158.44 110.473 158.732 105.689 159.339C88.4631 161.039 60.2787 169.735 47.589 162.848C47.53 162.807 47.471 162.766 47.4124 162.726C46.8119 162.062 46.7851 162.293 46.4872 161.663C46.434 161.534 46.4039 161.457 46.3788 161.39C44.6706 154.675 44.5974 146.888 43.7039 138.467C43.1532 130.252 41.1697 122.253 39.5259 114.212C38.6032 109.376 38.3086 104.435 37.5591 99.2573C37.66 104.334 37.385 109.42 37.7399 114.489C38.4454 122.637 39.5523 130.771 39.2372 138.969C39.1593 145.148 38.9936 151.333 39.2585 157.51C39.4485 161.14 39.7594 165.161 42.6331 167.752C56.0597 179.357 91.7941 170.27 103.429 169.195C112.06 167.898 120.831 167.834 129.479 169.007C138.876 169.753 148.314 169.802 157.717 169.154C161.787 168.694 166.5 169.012 169.687 166.027C178.869 155.156 174.507 139.112 172.911 126.304Z" fill="#F0FDFA"/>
<path d="M160.692 158.988C160.348 159.034 160.412 159.029 160.692 158.988V158.988Z" fill="#F0FDFA"/>
<path d="M160.292 159.034C160.795 158.978 160.78 158.967 160.292 159.034V159.034Z" fill="#F0FDFA"/>
<path d="M334.795 97.4074C317.065 97.9442 299.294 97.4669 281.593 98.7116C268.046 99.6984 254.685 102.27 241.433 105.16C268.957 103.748 296.786 104.986 324.011 100.098C328.432 99.264 332.834 98.3274 337.24 97.4175C336.425 97.4115 335.61 97.4047 334.795 97.4074Z" fill="#F0FDFA"/>
<path d="M337.513 126.052C326.935 122.169 315.381 124.216 304.365 124.07C294.51 124.243 284.686 125.07 274.847 125.591C266.113 125.94 257.357 126.103 248.698 127.409C264.963 128.566 281.175 131.325 297.526 129.819C305.458 129.315 313.346 128.311 321.195 127.08C326.608 126.27 330.414 125.469 336.595 126.08C337.058 126.079 338.693 126.452 337.513 126.052Z" fill="#F0FDFA"/>
<path d="M252.784 156.923C264.234 157.326 275.691 158.271 287.152 157.75C304.92 156.571 322.523 153.599 339.693 148.879C307.827 149.256 283.324 152.546 252.784 156.923Z" fill="#F0FDFA"/>
<path d="M350.704 191.937C326.17 191.342 301.825 186.929 277.234 188.018C251.673 188.125 232.392 193.622 209.133 194.231C188.847 195.273 168.52 193.484 148.246 194.837C133.889 195.971 119.625 198.08 105.315 199.685C87.8967 201.552 70.6873 205.021 53.9055 210.048C68.6926 207.611 83.6293 206.19 98.6107 205.796C114.756 205.615 130.884 204.827 147.021 204.392C168.787 204.451 190.547 206.327 212.315 205.118C238.723 203.902 257.8 198.971 282.724 197.616C305.692 195.362 328.884 196.92 351.795 193.953C356.122 193.403 360.445 192.819 364.763 192.2C360.076 192.127 355.39 192.04 350.704 191.937Z" fill="#F0FDFA"/>
<path d="M341.102 215.871C320.219 215.924 295.913 220.693 278.952 222.679C260.464 224.91 241.833 225.441 223.229 225.685C192.871 226.17 162.603 228.573 132.306 230.332C120.351 230.85 108.385 231.112 96.4321 231.703C86.9035 232.25 77.3979 233.389 68.4355 236.838C77.9804 234.468 87.7856 234.516 97.5418 235.118C110.139 235.882 122.72 236.988 135.336 237.399C167.566 238.462 199.799 236.822 232.029 236.55C249.875 236.248 267.651 234.249 285.118 230.58C305.005 226.144 324.557 220.179 344.766 217.26C347.855 216.751 350.946 216.245 354.047 215.817C349.732 215.765 345.417 215.783 341.102 215.871Z" fill="#F0FDFA"/>
<path d="M342.105 249.185C322.103 250.41 302.052 250.544 282.064 251.947C256.381 254.59 230.575 254.902 204.808 256.2C184.846 257.116 164.885 258.037 144.907 258.539C127.197 259.709 109.179 260.48 92.0464 265.444C101.46 264.074 110.984 263.626 120.484 264.105C132.187 264.268 143.868 264.867 155.528 265.901C172.058 267.261 188.658 267.597 205.238 267.528C231.932 267.284 258.612 265.554 284.861 260.503C304.007 257.531 323.209 254.984 342.098 250.574C344.738 250.06 347.407 249.708 350.09 249.519C347.438 249.245 344.771 249.133 342.105 249.185V249.185Z" fill="#F0FDFA"/>
</g>
<defs>
<clipPath id="clip0_95_64">
<rect width="464.63" height="414.652" fill="white"/>
</clipPath>
</defs>
</svg>
