<svg width="628" height="166" viewBox="0 0 628 166" fill="none" xmlns="http://www.w3.org/2000/svg">
<path d="M65.7918 33.7012C45.2878 40.5432 29.5498 59.907 27.0434 81.3766C24.537 102.846 35.3916 125.315 53.7683 136.696C58.4817 104.753 63.1952 72.8114 65.7918 33.7012Z" fill="#2DD4BF"/>
<path d="M541.827 25.2316C522.729 27.6581 505.734 42.2357 500.428 60.7415C495.122 79.2472 501.811 100.615 516.721 112.793C540.956 91.4063 548.34 53.1603 541.827 25.2316Z" fill="#2DD4BF"/>
<path d="M362.044 101.361C354.54 111.703 346.613 122.416 335.237 128.231C323.86 134.047 307.982 133.208 300.437 122.896C292.893 112.584 301.099 94.0134 313.731 95.9278C330.848 98.5218 347.965 101.116 362.044 101.361Z" fill="#2DD4BF"/>
<path d="M140.664 71.1422C123.667 53.0962 86.4811 52.0437 63.2617 64.9947C62.7921 65.3381 61.4981 65.9635 62.729 65.4745C65.9399 64.3268 69.2412 63.4498 72.5984 62.8528C81.039 60.9867 96.1952 61.9247 100.631 62.9071C109.372 64.4564 114.962 66.2469 120.934 69.3438C127.563 72.8101 128.524 73.7834 133.731 79.8224C136.676 83.9515 139.28 87.5797 138.753 96.6118C138.092 105.03 136.5 114.722 130.207 123.485C130.079 124.127 121.854 132.999 116.599 137.256C114.072 139.183 111.381 140.884 108.705 142.593C106.819 143.709 104.874 144.72 102.877 145.622C87.051 152.336 70.7787 153.46 59.4008 151.541C55.4552 150.911 51.6073 149.775 47.952 148.162C43.035 146.026 38.3817 143.328 34.0847 140.123C32.6402 138.908 31.2724 137.604 29.9892 136.219C29.2647 135.547 26.6905 132.513 25.9443 131.676C15.395 116.917 11.6731 107.152 11.1669 90.6102C10.9872 70.9581 24.1903 49.2275 42.4656 37.2864C52.9144 30.2824 62.828 27.9305 76.3237 25.7714C63.5878 25.8243 50.5752 26.7779 39.0447 32.6785C23.3865 40.5575 11.0462 53.7554 4.23543 69.9069C-1.00486 82.8355 -1.11284 97.3421 2.43164 110.725C8.41671 131.175 21.1564 150.976 41.5177 159.281C57.2602 166.849 75.4895 166.437 92.2161 162.701C112.398 158.256 130.07 145.419 141.761 128.523C146.776 120.492 149.406 111.206 150.406 101.84C152.11 90.3565 149.284 79.2274 140.664 71.1422Z" fill="#F0FDFA"/>
<path d="M396.116 65.0325C394.589 56.3377 388.602 49.0993 381.325 44.3909C363.516 33.1089 338.302 33.5889 320.664 45.0031C317.131 47.5158 313.509 50.1068 310.791 53.5222C308.574 56.6868 306.854 60.1708 305.688 63.8541C305.39 64.6464 304.331 68.9725 305.021 67.0325C306.43 63.7268 308.259 60.6166 310.463 57.7788C313.032 54.2804 316.875 52.1331 320.629 50.1231C330.294 45.1592 339.165 43.9375 349.531 44.6041C362.907 45.739 378.274 51.8741 383.24 62.6931C383.845 64.1629 383.694 63.2318 384.73 67.2305C384.817 67.9957 384.902 68.7615 384.942 69.5311C385.083 72.102 385.021 74.6802 384.756 77.2414C381.531 95.2507 373.318 105.257 358.625 118.943C346.641 129.701 326.254 136.898 313.628 134.979C302.707 133.249 299.979 131.641 290.607 126.318C277.469 119.32 264.876 106.122 261.285 96.6575C257.97 88.0963 258.35 85.8965 257.683 76.9591C257.751 67.2146 257.871 63.0287 260.289 54.5482C262.926 46.2104 269.366 36.0518 278.369 28.6071C286.058 22.8597 294.687 18.4912 303.87 15.6965C293.507 17.7561 283.145 20.7752 274.194 26.5455C264.896 32.9288 257.531 41.7437 252.903 52.0279C247.348 65.7637 245.871 84.358 250.291 98.5676C255.371 113.671 267.089 125.257 280.1 133.919C288.658 139.305 297.583 144.633 307.684 146.398C335.533 152.07 363.162 135.679 380.028 114.384C391.434 100.877 398.923 82.8994 396.116 65.0325Z" fill="#F0FDFA"/>
<path d="M621.157 70.9218C612.469 51.461 590.878 39.3527 569.82 40.371C560.298 40.5426 551.513 44.6214 543.304 49.1091C542.087 49.7666 540.885 50.4506 539.686 51.1399C542.629 50.0274 545.601 48.9908 548.613 48.0836C560.413 43.851 573.398 44.3806 584.814 49.5602C593.262 53.3986 596.257 55.5898 601.993 61.7894C606.406 66.4512 607.958 68.7541 611.067 75.8547C612.819 79.8115 614.174 83.9322 615.113 88.1563C617.15 100.831 609.5 120.307 595.595 132.941C578.399 150.3 551.53 151.612 531.322 143.587C508.831 133.489 491.895 114.376 488.387 91.2501C486.738 78.9654 491.081 50.4529 498.998 36.8273C502.093 31.3285 504.241 29.4194 510.036 24.0746C516.117 18.5965 522.96 14.0283 530.35 10.5123C541.531 5.29462 556.163 1.82397 570.14 0.0257161C549.453 -0.306584 527.814 2.4887 510.072 13.85C500.675 19.8093 491.692 27.1112 487.149 37.5588C481.149 49.916 478.691 63.555 477.297 77.1206C474.004 101.231 485.662 124.617 503.759 140.098C511.459 146.597 519.904 152.333 529.438 155.768C551.554 163.737 578.239 162.532 597.235 147.697C615.167 134.33 627.844 112.714 627.045 89.9777C626.656 83.2317 623.967 76.9715 621.157 70.9218Z" fill="#F0FDFA"/>
</svg>
